<svg version="1.1" id="Uploaded to svgrepo.com" xmlns="http://www.w3.org/2000/svg" xmlns:xlink="http://www.w3.org/1999/xlink" x="0px" y="0px"
	 width="32px" height="32px" viewBox="0 0 32 32" style="enable-background:new 0 0 32 32;" xml:space="preserve">
<style type="text/css">
	.stone_een{fill:#0B1719;}
	.st0{fill:#0B1719;}
</style>
<path class="stone_een" d="M20,0h-8c-1.657,0-3,1.343-3,3v26c0,1.657,1.343,3,3,3h8c1.657,0,3-1.343,3-3V3C23,1.343,21.657,0,20,0z
	 M10.5,4h1C11.776,4,12,4.224,12,4.5S11.776,5,11.5,5h-1C10.224,5,10,4.776,10,4.5S10.224,4,10.5,4z M11.5,29h-1
	c-0.276,0-0.5-0.224-0.5-0.5s0.224-0.5,0.5-0.5h1c0.276,0,0.5,0.224,0.5,0.5S11.776,29,11.5,29z M13.5,26h-3
	c-0.276,0-0.5-0.224-0.5-0.5s0.224-0.5,0.5-0.5h3c0.276,0,0.5,0.224,0.5,0.5S13.776,26,13.5,26z M10,22.5c0-0.276,0.224-0.5,0.5-0.5
	h1c0.276,0,0.5,0.224,0.5,0.5S11.776,23,11.5,23h-1C10.224,23,10,22.776,10,22.5z M13.5,20h-3c-0.276,0-0.5-0.224-0.5-0.5
	s0.224-0.5,0.5-0.5h3c0.276,0,0.5,0.224,0.5,0.5S13.776,20,13.5,20z M10,16.5c0-0.276,0.224-0.5,0.5-0.5h1
	c0.276,0,0.5,0.224,0.5,0.5S11.776,17,11.5,17h-1C10.224,17,10,16.776,10,16.5z M13.5,14h-3c-0.276,0-0.5-0.224-0.5-0.5
	s0.224-0.5,0.5-0.5h3c0.276,0,0.5,0.224,0.5,0.5S13.776,14,13.5,14z M10,10.5c0-0.276,0.224-0.5,0.5-0.5h1
	c0.276,0,0.5,0.224,0.5,0.5S11.776,11,11.5,11h-1C10.224,11,10,10.776,10,10.5z M13.5,8h-3C10.224,8,10,7.776,10,7.5
	S10.224,7,10.5,7h3C13.776,7,14,7.224,14,7.5S13.776,8,13.5,8z"/>
</svg>